<svg width="24" height="24" viewBox="0 0 24 24" fill="none" xmlns="http://www.w3.org/2000/svg">
<g id="Iconly/Light/Image 3">
<g id="Image 2">
<path id="Stroke 1" fill-rule="evenodd" clip-rule="evenodd" d="M16.3028 2.74976H7.65076C4.63876 2.74976 2.74976 4.88376 2.74976 7.90376V16.0498C2.74976 19.0698 4.63076 21.2038 7.65076 21.2038H16.2978C19.3228 21.2038 21.2028 19.0698 21.2028 16.0498V7.90376C21.2068 4.88376 19.3258 2.74976 16.3028 2.74976Z" stroke="#939FB4" stroke-width="1.5" stroke-linecap="round" stroke-linejoin="round"/>
<path id="Stroke 3" fill-rule="evenodd" clip-rule="evenodd" d="M10.7031 8.78496C10.7031 9.80496 9.87711 10.631 8.85711 10.631C7.83811 10.631 7.01111 9.80496 7.01111 8.78496C7.01111 7.76496 7.83811 6.93896 8.85711 6.93896C9.87611 6.93996 10.7021 7.76596 10.7031 8.78496Z" stroke="#939FB4" stroke-width="1.5" stroke-linecap="round" stroke-linejoin="round"/>
<path id="Stroke 5" d="M21.207 14.9509C20.284 14.0009 18.509 12.0819 16.579 12.0819C14.648 12.0819 13.535 16.3149 11.678 16.3149C9.821 16.3149 8.134 14.4009 6.646 15.6279C5.158 16.8539 3.75 19.3609 3.75 19.3609" stroke="#939FB4" stroke-width="1.5" stroke-linecap="round" stroke-linejoin="round"/>
</g>
</g>
</svg>
