<svg width="400" height="400" viewBox="0 0 400 400" fill="none" xmlns="http://www.w3.org/2000/svg">
<mask id="mask0_206_165" style="mask-type:alpha" maskUnits="userSpaceOnUse" x="26" y="6" width="348" height="388">
<path d="M180.074 11.5044C192.404 4.38546 207.596 4.38546 219.926 11.5044L353.279 88.4956C365.609 95.6145 373.205 108.771 373.205 123.009V276.991C373.205 291.229 365.609 304.385 353.279 311.504L219.926 388.496C207.596 395.615 192.404 395.615 180.074 388.496L46.7212 311.504C34.3908 304.385 26.7949 291.229 26.7949 276.991V123.009C26.7949 108.771 34.3908 95.6145 46.7212 88.4956L180.074 11.5044Z" fill="white"/>
</mask>
<g mask="url(#mask0_206_165)">
<path opacity="0.4" d="M180.074 11.5044C192.404 4.38546 207.596 4.38546 219.926 11.5044L353.279 88.4956C365.609 95.6145 373.205 108.771 373.205 123.009V276.991C373.205 291.229 365.609 304.385 353.279 311.504L219.926 388.496C207.596 395.615 192.404 395.615 180.074 388.496L46.7212 311.504C34.3908 304.385 26.7949 291.229 26.7949 276.991V123.009C26.7949 108.771 34.3908 95.6145 46.7212 88.4956L180.074 11.5044Z" fill="white"/>
<path opacity="0.4" d="M252.878 -120.894C265.208 -128.013 280.4 -128.013 292.731 -120.894L426.083 -43.9026C438.414 -36.7837 446.009 -23.6273 446.009 -9.38934V144.593C446.009 158.831 438.414 171.987 426.083 179.106L292.731 256.097C280.4 263.216 265.208 263.216 252.878 256.097L119.525 179.106C107.195 171.987 99.5992 158.831 99.5992 144.593V-9.38934C99.5992 -23.6273 107.195 -36.7837 119.525 -43.9026L252.878 -120.894Z" fill="white"/>
<path opacity="0.4" d="M107.269 -120.894C119.6 -128.013 134.792 -128.013 147.122 -120.894L280.475 -43.9026C292.805 -36.7837 300.401 -23.6273 300.401 -9.38934V144.593C300.401 158.831 292.805 171.987 280.475 179.106L147.122 256.097C134.792 263.216 119.6 263.216 107.269 256.097L-26.0832 179.106C-38.4136 171.987 -46.0094 158.831 -46.0094 144.593V-9.38934C-46.0094 -23.6273 -38.4136 -36.7837 -26.0832 -43.9026L107.269 -120.894Z" fill="white"/>
</g>
</svg>
